<?xml version="1.0" encoding="UTF-8"?><svg id="FA" xmlns="http://www.w3.org/2000/svg" viewBox="0 0 119.46 155.48"><path d="M76.61,2m0,0l40.85,42.05M77.46,0H0V155.48H119.46V43.24L77.46,0h0Z" fill="#efb207"/><path d="M75.87,.43V45.97l43.59-.1v-2.64L77.46,0l-1.59,.43Z" fill="#cc9306"/><path d="M77.46,0V43.24h42L77.46,0h0Z" fill="#ffc229"/><path d="M15.99,43.24v-4.92c-3.13-.05-6.36-.93-8.25-2.14l1.29-3.26c1.94,1.17,4.75,2.09,7.77,2.09,3.83,0,6.42-2,6.42-4.77s-2.1-4.33-6.09-5.79c-5.5-1.95-8.9-4.19-8.9-8.42s3.18-7.11,8.14-7.84V3.28h3.34V8c3.24,.1,5.45,.88,7.01,1.7l-1.35,3.21c-1.13-.58-3.34-1.66-6.79-1.66-4.15,0-5.72,2.24-5.72,4.19,0,2.53,2,3.8,6.69,5.55,5.56,2.04,8.36,4.58,8.36,8.91,0,3.85-2.97,7.45-8.52,8.27v5.06h-3.4Z" fill="#fcfcfc"/><g><path d="M41.23,118.79v1.95H21.73v-1.95h19.5Z" fill="#fff"/><path d="M60.73,118.79v1.95h-19.5v-1.95h19.5Z" fill="#fff"/><path d="M80.23,118.79v1.95h-19.5v-1.95h19.5Z" fill="#fff"/><path d="M99.73,118.79v1.95h-19.5v-1.95h19.5Z" fill="#fff"/></g><g><path d="M41.23,105.85v1.95H21.73v-1.95h19.5Z" fill="#fff"/><path d="M60.73,105.85v1.95h-19.5v-1.95h19.5Z" fill="#fff"/><path d="M80.23,105.85v1.95h-19.5v-1.95h19.5Z" fill="#fff"/><path d="M99.73,105.85v1.95h-19.5v-1.95h19.5Z" fill="#fff"/></g><g><path d="M41.23,132.98v1.95H21.73v-1.95h19.5Z" fill="#fff"/><path d="M60.73,132.98v1.95h-19.5v-1.95h19.5Z" fill="#fff"/><path d="M80.23,132.98v1.95h-19.5v-1.95h19.5Z" fill="#fff"/><path d="M99.73,132.98v1.95h-19.5v-1.95h19.5Z" fill="#fff"/></g><g><path d="M25.12,48.39h30.21v5.28h-22.97v16.21h21.22v5.21h-21.22v22.08h-7.24V48.39Z" fill="#fff"/><path d="M68.23,81.83l-5.82,15.34h-7.49l19.06-48.78h8.74l19.14,48.78h-7.74l-5.99-15.34h-19.89Zm18.39-4.92l-5.49-14.04c-1.25-3.18-2.08-6.08-2.91-8.9h-.17c-.83,2.9-1.75,5.86-2.83,8.83l-5.49,14.11h16.9Z" fill="#fff"/></g></svg>