<?xml version="1.0" encoding="UTF-8"?><svg id="NC" xmlns="http://www.w3.org/2000/svg" viewBox="0 0 120.46 156.86"><path d="M77.11,2.5m0,0l40.85,42.05M77.96,.5H.5V155.98l21.73-11.33,38,11.33,40-11.7,19.73,11.7V43.74L77.96,.5h0Z" fill="#249d63" stroke="#249d63" stroke-miterlimit="10"/><path d="M76.37,.93V46.47l43.59-.1v-2.64L77.96,.5l-1.59,.43Z" fill="#28844f"/><path d="M77.96,.5V43.74h42L77.96,.5h0Z" fill="#34ce7d"/><path d="M96.9,134.52v-2.82c-1.8-.03-3.66-.53-4.75-1.23l.74-1.87c1.12,.67,2.73,1.2,4.47,1.2,2.2,0,3.69-1.15,3.69-2.74s-1.21-2.49-3.51-3.33c-3.16-1.12-5.12-2.4-5.12-4.84s1.83-4.08,4.69-4.5v-2.82h1.92v2.71c1.86,.06,3.13,.5,4.03,.98l-.78,1.84c-.65-.34-1.92-.95-3.91-.95-2.39,0-3.29,1.29-3.29,2.4,0,1.45,1.15,2.18,3.85,3.19,3.2,1.17,4.81,2.63,4.81,5.12,0,2.21-1.71,4.28-4.9,4.75v2.91h-1.95Z" fill="#fcfcfc"/><g><path d="M34.42,119.29v1.95h-12.19v-1.95h12.19Z" fill="#fff"/><path d="M46.6,119.29v1.95h-12.19v-1.95h12.19Z" fill="#fff"/><path d="M58.79,119.29v1.95h-12.19v-1.95h12.19Z" fill="#fff"/><path d="M70.98,119.29v1.95h-12.19v-1.95h12.19Z" fill="#fff"/></g><g><path d="M37.09,106.35v1.95h-14.86v-1.95h14.86Z" fill="#fff"/><path d="M51.95,106.35v1.95h-14.86v-1.95h14.86Z" fill="#fff"/><path d="M66.81,106.35v1.95h-14.86v-1.95h14.86Z" fill="#fff"/><path d="M81.67,106.35v1.95h-14.86v-1.95h14.86Z" fill="#fff"/></g><g><path d="M37.09,133.48v1.95h-14.86v-1.95h14.86Z" fill="#fff"/><path d="M51.95,133.48v1.95h-14.86v-1.95h14.86Z" fill="#fff"/><path d="M66.81,133.48v1.95h-14.86v-1.95h14.86Z" fill="#fff"/><path d="M81.67,133.48v1.95h-14.86v-1.95h14.86Z" fill="#fff"/></g><g><path d="M34.42,125.52v1.95h-12.19v-1.95h12.19Z" fill="#fff"/><path d="M46.6,125.52v1.95h-12.19v-1.95h12.19Z" fill="#fff"/><path d="M58.79,125.52v1.95h-12.19v-1.95h12.19Z" fill="#fff"/><path d="M70.98,125.52v1.95h-12.19v-1.95h12.19Z" fill="#fff"/></g><g><path d="M37.09,138.88v1.95h-14.86v-1.95h14.86Z" fill="#fff"/><path d="M51.95,138.88v1.95h-14.86v-1.95h14.86Z" fill="#fff"/><path d="M66.81,138.88v1.95h-14.86v-1.95h14.86Z" fill="#fff"/><path d="M81.67,138.88v1.95h-14.86v-1.95h14.86Z" fill="#fff"/></g><g><path d="M37.09,111.14v1.95h-14.86v-1.95h14.86Z" fill="#fff"/><path d="M51.95,111.14v1.95h-14.86v-1.95h14.86Z" fill="#fff"/><path d="M66.81,111.14v1.95h-14.86v-1.95h14.86Z" fill="#fff"/><path d="M81.67,111.14v1.95h-14.86v-1.95h14.86Z" fill="#fff"/></g><path d="M116.64,122.77c0,11.02-9.17,18.22-18.89,18.22-11,0-18.47-8.02-18.47-17.54-.14-10.47,8.32-18.36,18.76-18.36,11.56,0,18.61,8.43,18.61,17.68Zm-29.75,.68c0,6.26,4.79,11.15,11,11.15s11.14-5.03,11.14-11.7c0-5.03-3.1-11.42-11.14-11.42-7.33,0-11,6.12-11,11.97Z" fill="#fff"/><g><path d="M22.23,97.67V49.74h5.97l13.57,24.25c3.14,5.62,5.59,10.67,7.6,15.57l.13-.07c-.5-6.4-.63-12.23-.63-19.7v-20.05h5.15v47.93h-5.53l-13.45-24.32c-2.95-5.33-5.78-10.81-7.92-16l-.19,.07c.31,6.04,.44,11.8,.44,19.77v20.48h-5.15Z" fill="#fff"/><path d="M93.18,96.1c-2.01,1.14-6.03,2.27-11.19,2.27-11.94,0-20.93-8.53-20.93-24.25s8.99-25.17,22.12-25.17c5.28,0,8.61,1.28,10.06,2.13l-1.32,5.05c-2.07-1.14-5.03-1.99-8.55-1.99-9.93,0-16.53,7.18-16.53,19.77,0,11.73,5.97,19.27,16.28,19.27,3.33,0,6.73-.78,8.92-1.99l1.13,4.91Z" fill="#fff"/></g></svg>