<?xml version="1.0" encoding="UTF-8"?><svg id="OC" xmlns="http://www.w3.org/2000/svg" viewBox="0 0 119.46 155.48"><path d="M76.61,2m0,0l40.85,42.05m2,111.43V43.24L77.46,0h0S0,0,0,0V155.48H119.46Z" fill="#1ba2ed"/><path d="M75.87,.43V45.97l43.59-.1v-2.64L77.46,0s-1.59,.43-1.59,.43Z" fill="#1b93c9"/><path d="M77.46,0V43.24h42L77.46,0h0Z" fill="#5acdff"/><g><path d="M62.98,72.33c0,16.7-9.88,25.55-21.93,25.55s-21.23-9.93-21.23-24.62c0-15.4,9.32-25.48,21.93-25.48s21.23,10.15,21.23,24.54Zm-36.64,.79c0,10.36,5.46,19.65,15.06,19.65s15.13-9.14,15.13-20.15c0-9.64-4.9-19.72-15.06-19.72s-15.13,9.57-15.13,20.23Z" fill="#fff"/><path d="M103.89,95.5c-2.24,1.15-6.72,2.3-12.47,2.3-13.31,0-23.33-8.64-23.33-24.54s10.02-25.48,24.66-25.48c5.88,0,9.6,1.29,11.21,2.16l-1.47,5.11c-2.31-1.15-5.6-2.02-9.53-2.02-11.07,0-18.42,7.27-18.42,20.01,0,11.88,6.65,19.51,18.14,19.51,3.71,0,7.49-.79,9.95-2.01l1.26,4.97Z" fill="#fff"/></g><g id="Capa_3"><path d="M23.61,111.8l12.45,33.39,1.16,.14,.93,.08,41.21-.69,3.51-.06,1.94,.36c.78,.14,1.43-.58,1.19-1.33l-.12-.38c-.19-.6-.7-1.04-1.33-1.14l-1.69-.26-3.37,.02-41.99,.25-4.99-12.93c1.03,1.6,5.72,7.11,7.63,7.11h42.33c2.41,0,4.64-1.27,5.85-3.34l9.96-16.93c1.17-1.99-.27-4.49-2.59-4.51l-65.57-.4-17.16-21.14H3.63v3.45l4.92,.26c1.93,.1,3.67,1.2,4.59,2.89l10.47,15.15Z" fill="#fff"/><g><path d="M40.29,148.7c-.05-3.02,2.48-5.37,5.54-5.37s5.54,2.35,5.54,5.32-2.43,5.37-5.54,5.37-5.54-2.3-5.54-5.32Z" fill="#fcfcfc"/><path d="M66.37,148.7c-.05-3.02,2.48-5.37,5.54-5.37s5.54,2.35,5.54,5.32-2.43,5.37-5.54,5.37-5.54-2.3-5.54-5.32Z" fill="#fcfcfc"/></g><path d="M49.77,123.94c-.11-6.19,5.21-11.01,11.64-11.01s11.64,4.82,11.64,10.9-5.1,11.01-11.64,11.01-11.64-4.72-11.64-10.91Z" fill="#1ba2ed"/></g><path d="M60.43,133.28v-2.31c-1.66-.02-3.38-.43-4.38-1.01l.69-1.53c1.03,.55,2.52,.98,4.12,.98,2.03,0,3.41-.94,3.41-2.24s-1.12-2.04-3.23-2.72c-2.92-.91-4.72-1.97-4.72-3.96s1.69-3.34,4.32-3.68v-2.31h1.77v2.22c1.72,.05,2.89,.41,3.72,.8l-.72,1.51c-.6-.27-1.77-.78-3.61-.78-2.2,0-3.03,1.05-3.03,1.97,0,1.19,1.06,1.78,3.55,2.61,2.95,.96,4.44,2.15,4.44,4.19,0,1.81-1.57,3.5-4.52,3.89v2.38h-1.8Z" fill="#fcfcfc"/></svg>